<?xml version="1.0" encoding="utf-8"?>
<!-- Generator: Adobe Illustrator 22.0.0, SVG Export Plug-In . SVG Version: 6.00 Build 0)  -->
<svg version="1.1" id="Layer_1" xmlns="http://www.w3.org/2000/svg" xmlns:xlink="http://www.w3.org/1999/xlink" x="0px" y="0px"
	 viewBox="0 0 628.9176 148.0465" style="enable-background:new 0 0 628.9176 148.0465;" xml:space="preserve">
<style type="text/css">
	.st0{fill:#263370;}
	.st1{fill:#C42026;}
	.st2{fill:#FFFFFF;}
</style>
<path class="st0" d="M134.3813,4.7408c1.8652,1.9346,2.7988,4.4346,2.7988,7.5v122.8003c0,3.0684-0.834,5.4688-2.5,7.1992
	c-1.668,1.7314-3.9688,2.6006-6.8984,2.6006c-2.8008,0-5-0.8691-6.6006-2.6006c-1.6001-1.7305-2.3999-4.1309-2.3999-7.1992v-93
	L79.581,116.6407c-2.5342,4.6689-5.7998,7-9.7998,7s-7.269-2.3311-9.8003-7L20.581,42.8409v92.2002
	c0,3.0684-0.7998,5.4688-2.3999,7.1992c-1.6001,1.7314-3.8687,2.6006-6.8003,2.6006c-2.7998,0-5.0342-0.9004-6.6997-2.7002
	c-1.6689-1.7998-2.5-4.166-2.5-7.0996V12.2408c0-3.0654,0.9312-5.5654,2.7998-7.5c1.8657-1.9312,4.2656-2.8999,7.2002-2.8999
	c4.1313,0,7.4653,2.3999,10,7.2002l47.7998,91.3994l47.3999-91.3994c2.5312-4.8003,5.7993-7.2002,9.7993-7.2002
	C130.1118,1.8409,132.5122,2.8096,134.3813,4.7408z"/>
<path class="st0" d="M248.7788,121.4405c1.2002,1.4688,1.7998,3.335,1.7998,5.6006c0,3.8682-2.3994,7.1338-7.2002,9.7998
	c-4.668,2.6689-9.7686,4.7344-15.2998,6.2002c-5.5342,1.4648-10.834,2.1992-15.8994,2.1992c-15.4688,0-27.6689-4.5-36.6006-13.5
	c-8.9346-9-13.3994-21.2998-13.3994-36.8994c0-10,1.9648-18.8657,5.8994-26.6001c3.9316-7.731,9.4658-13.731,16.6006-18
	c7.1309-4.2656,15.2305-6.3999,24.2998-6.3999c13.0654,0,23.3994,4.2002,31,12.6001c7.5996,8.3999,11.3994,19.7344,11.3994,33.9995
	c0,5.335-2.3994,8-7.1992,8h-61.8008c1.332,20.6689,11.2656,31,29.8008,31c4.9307,0,9.1992-0.665,12.7998-2
	c3.5996-1.3311,7.3994-3.0654,11.3994-5.2002c0.4004-0.2656,1.5-0.8311,3.3008-1.6992c1.7998-0.8662,3.2998-1.3008,4.5-1.3008
	C246.0444,119.2403,247.5786,119.9746,248.7788,121.4405z M190.7788,66.0411c-4.6689,4.9341-7.4688,11.8687-8.4004,20.7998h51.6006
	c-0.4004-9.0654-2.7002-16.0312-6.9004-20.8999c-4.2002-4.8657-10.0996-7.3003-17.7002-7.3003
	C201.644,58.6407,195.4448,61.1094,190.7788,66.0411z"/>
<path class="st0" d="M360.7769,4.441c1.8652,1.7344,2.7998,4.0688,2.7998,7v123.6001c0,3.0684-0.9004,5.4688-2.7002,7.1992
	c-1.7998,1.7314-4.2344,2.6006-7.2998,2.6006c-3.0684,0-5.5-0.8691-7.2998-2.6006c-1.7998-1.7305-2.7002-4.1309-2.7002-7.1992v-8
	c-2.9346,5.8682-7.2002,10.3682-12.7998,13.5c-5.6006,3.1338-12.0693,4.6992-19.4004,4.6992c-8.3994,0-15.8994-2.1309-22.5-6.3994
	c-6.5996-4.2656-11.7344-10.2656-15.3994-18c-3.6689-7.7314-5.5-16.6006-5.5-26.6006c0-10.1309,1.8311-18.9995,5.5-26.5996
	c3.665-7.5996,8.7656-13.4653,15.2998-17.5996c6.5312-4.1313,14.0654-6.2002,22.5996-6.2002c7.3311,0,13.7656,1.5688,19.2998,4.7002
	c5.5312,3.1343,9.7656,7.5684,12.7002,13.2998V11.0411c0-2.8003,0.9004-5.0312,2.7002-6.7002c1.7998-1.6655,4.2314-2.5,7.2998-2.5
	C356.4419,1.8409,358.9077,2.7095,360.7769,4.441z M336.3765,120.2403c4.7998-6,7.2002-14.5312,7.2002-25.5996
	c0-11.0654-2.3691-19.5996-7.0996-25.5996c-4.7344-6-11.5-9-20.3008-9c-8.7998,0-15.6338,2.9688-20.5,8.8999
	c-4.8682,5.9341-7.2998,14.3687-7.2998,25.2993c0,10.9346,2.4658,19.5,7.4004,25.7002c4.9307,6.2002,11.7314,9.2998,20.3994,9.2998
	C324.8423,129.2403,331.5767,126.2403,336.3765,120.2403z"/>
<path class="st0" d="M392.7749,21.441c-2.2686-2.1313-3.4004-4.9312-3.4004-8.3999c0-3.4658,1.1318-6.2314,3.4004-8.3003
	c2.2656-2.0654,5.3311-3.1001,9.2002-3.1001c3.7314,0,6.7656,1.0347,9.0996,3.1001c2.3311,2.0688,3.5,4.8345,3.5,8.3003
	c0,3.4688-1.1338,6.2686-3.3994,8.3999c-2.2695,2.1343-5.335,3.1997-9.2002,3.1997
	C398.106,24.6407,395.0405,23.5752,392.7749,21.441z M394.6753,142.4405c-1.9346-1.5996-2.9004-4-2.9004-7.2002V54.0411
	c0-3.2002,0.9658-5.6313,2.9004-7.3003c1.9307-1.6655,4.3652-2.5,7.2998-2.5c2.9307,0,5.3311,0.8345,7.2002,2.5
	c1.8652,1.6689,2.7998,4.1001,2.7998,7.3003v81.1992c0,3.2002-0.9346,5.6006-2.7998,7.2002
	c-1.8691,1.6006-4.2695,2.4004-7.2002,2.4004C399.0405,144.8409,396.606,144.0411,394.6753,142.4405z"/>
<g>
	<path class="st1" d="M527.8141,126.9916c0,4.6014-1.7889,8.8783-5.1838,12.373c-3.4614,3.5529-7.8215,5.4335-12.6227,5.4335
		c-5.1838,0-9.8102-2.18-13.3881-6.3071l-17.2324-19.0629l-17.2906,19.1295l-0.0666,0.0749l-0.0749,0.0749
		c-3.6778,3.8775-8.2375,5.9244-13.1884,5.9244c-4.6513,0-8.9365-1.8223-12.3647-5.2671c-3.4532-3.4365-5.2754-7.7217-5.2754-12.373
		c0-4.6929,1.8306-9.0364,5.292-12.5644l19.0213-20.7187l-17.6816-19.221c-3.4698-3.528-5.3004-7.8714-5.3004-12.5644
		c0-4.8094,1.8555-9.1529,5.3586-12.5478c3.4282-3.3283,7.6801-5.0923,12.2814-5.0923c4.9509,0,9.5107,2.0469,13.1885,5.9161
		l0.0583,0.0583l0.0583,0.0666l15.9842,17.5485l15.9842-17.5485l0.0583-0.0583l0.0583-0.0666
		c3.6778-3.8691,8.2375-5.9161,13.1884-5.9161c4.7595,0,9.0697,1.789,12.4562,5.1838c3.3949,3.3866,5.1839,7.6967,5.1839,12.4562
		c0,4.6929-1.8306,9.0364-5.2921,12.5644l-17.665,19.2044l19.1545,20.7188C525.9835,117.947,527.8141,122.2904,527.8141,126.9916z"
		/>
</g>
<path class="st0" d="M616.4722,53.6407c6.3311,6.5347,9.5,16.4688,9.5,29.8003v51.7993c0,3.0693-0.8691,5.4346-2.6006,7.1006
	c-1.7344,1.665-4.1338,2.5-7.2002,2.5c-2.9336,0-5.2686-0.8691-7-2.6006c-1.7344-1.7305-2.5996-4.0654-2.5996-7v-7.3994
	c-2.5342,5.5996-6.2998,9.8994-11.2998,12.8994s-10.835,4.5-17.5,4.5c-6.4004,0-12.2686-1.2998-17.6006-3.8994
	c-5.334-2.6006-9.5-6.2314-12.5-10.9004c-3-4.665-4.5-9.8652-4.5-15.5996c0-7.0654,1.832-12.6318,5.5-16.7002
	c3.666-4.0654,9.7314-6.9658,18.2002-8.7002c8.4658-1.7314,20.1006-2.5996,34.9004-2.5996h4.5996v-5.7998
	c0-7.4658-1.5342-12.8657-4.5996-16.2002c-3.0693-3.3311-8-5-14.7998-5c-4.6689,0-9.0693,0.6001-13.2002,1.7998
	c-4.1348,1.2002-8.6689,2.9346-13.6006,5.2002c-3.5996,2-6.1338,3-7.5996,3c-2,0-3.6348-0.7314-4.9004-2.2002
	c-1.2686-1.4653-1.8994-3.3311-1.8994-5.5996c0-2,0.5654-3.7656,1.7002-5.3003c1.1309-1.5312,2.9648-3.0312,5.5-4.5
	c4.665-2.5312,10.1309-4.5654,16.3994-6.1001c6.2656-1.5312,12.3311-2.2998,18.2002-2.2998
	C600.5034,43.8409,610.1372,47.1094,616.4722,53.6407z M599.3716,122.7403c4.666-5,7-11.4307,7-19.2998v-5.2002h-3.5996
	c-10.4004,0-18.4004,0.4688-24,1.4004c-5.6006,0.9346-9.6006,2.5-12,4.7002c-2.4004,2.2002-3.6006,5.3682-3.6006,9.5
	c0,4.7998,1.7314,8.7344,5.2002,11.7998c3.4658,3.0684,7.7998,4.5996,13,4.5996
	C588.7026,130.2403,594.7026,127.7403,599.3716,122.7403z"/>
<path class="st2" d="M506.921,116.5691l-7.9101-7.9136l5.7708-3.3352c0.338-0.1955,0.5348-0.5668,0.5067-0.9563
	c-0.0282-0.3896-0.2763-0.7287-0.639-0.8733l-24.3791-9.7261c-0.3786-0.1512-0.8104-0.0623-1.0987,0.2258
	c-0.2881,0.2881-0.377,0.7201-0.2261,1.0985l9.7216,24.3901c0.1447,0.3629,0.4837,0.6112,0.8734,0.6394
	c0.3897,0.0287,0.7612-0.1686,0.9565-0.5069l3.3328-5.772l7.9095,7.9126c0.1912,0.1914,0.4506,0.2988,0.721,0.2988
	c0.2705,0,0.53-0.1075,0.7212-0.2988l3.7394-3.7417C507.319,117.6123,507.319,116.967,506.921,116.5691z"/>
</svg>
